<svg width="182" height="80" viewBox="0 0 182 80" fill="none" xmlns="http://www.w3.org/2000/svg">
<g clip-path="url(#clip0_99_240)">
<path d="M131.193 74.9564C131.193 76.5858 130.569 77.8274 129.398 78.6809C128.149 79.5344 126.823 80 125.34 80C123.857 80 122.53 79.612 121.281 78.6809C120.033 77.8274 119.486 76.5858 119.486 74.9564V54.7042C119.486 51.1348 120.033 47.7983 121.125 44.6169C122.218 41.4355 123.779 38.7197 125.964 36.3143C128.071 33.9088 130.647 32.0466 133.768 30.6499C136.89 29.2532 140.402 28.5548 144.383 28.5548C145.709 28.5548 147.192 28.71 148.753 28.9428C150.314 29.1756 151.953 29.5635 153.436 29.9515C154.919 30.3395 156.401 30.9602 157.806 31.7362C159.133 32.4345 160.304 33.2881 161.24 34.2968C162.177 35.3055 162.645 36.3919 162.723 37.6334C162.801 38.8749 162.567 39.9612 162.099 40.9699C161.63 41.9787 160.928 42.9098 159.913 43.6082C158.899 44.3065 157.806 44.6945 156.558 44.6945C155.231 44.6945 153.982 44.3065 152.811 43.3754C150.548 41.7459 148.675 40.8148 147.192 40.6596C145.709 40.5044 144.461 40.3492 143.446 40.3492C141.885 40.3492 140.324 40.6596 138.841 41.2027C137.359 41.8235 136.032 42.677 134.939 43.8409C133.847 45.0049 132.91 46.4792 132.208 48.2638C131.505 50.0485 131.193 52.2212 131.193 54.7042V74.9564Z" fill="#8776FF"/>
<path d="M175.912 21.8041C173.883 21.8041 172.322 21.1833 171.308 19.9418C170.293 18.7003 169.747 17.3812 169.747 15.8293C169.747 14.355 170.215 13.0359 171.308 11.7168C172.322 10.4752 173.805 9.85449 175.912 9.85449C177.942 9.85449 179.424 10.4752 180.517 11.7168C181.532 12.9583 182 14.355 182 15.8293C182 17.3036 181.532 18.7003 180.517 19.9418C179.424 21.1833 177.942 21.8041 175.912 21.8041ZM170.059 34.6072C170.059 32.9001 170.683 31.6586 171.854 30.805C173.025 30.0291 174.43 29.5635 175.912 29.5635C177.395 29.5635 178.722 29.9515 179.971 30.805C181.22 31.6586 181.766 32.9001 181.766 34.6072V75.0339C181.766 76.6634 181.141 77.9049 179.971 78.7585C178.722 79.612 177.395 80.0776 175.912 80.0776C174.43 80.0776 173.103 79.6896 171.854 78.7585C170.605 77.9049 170.059 76.6634 170.059 75.0339V34.6072Z" fill="#8776FF"/>
<path d="M111.135 30.6499C109.887 29.8739 108.56 29.4083 107.077 29.4083C105.594 29.4083 104.268 29.7963 103.019 30.6499C101.77 31.5034 101.224 32.7449 101.224 34.452V57.2648C101.224 60.9117 100.209 63.6276 98.024 65.4898C95.9168 67.3521 93.5755 68.2056 91 68.2056C89.7513 68.2056 88.5026 67.9728 87.3319 67.5073C86.0832 67.0417 85.0686 66.3434 84.1321 65.4898C83.1955 64.6363 82.4151 63.4724 81.8688 62.0757C81.2444 60.7565 81.0103 59.1271 81.0103 57.2648V38.6421C81.0883 37.1678 81.0883 35.8487 81.0103 34.5296V34.452C81.0103 34.3744 81.0103 34.3744 81.0103 34.3744C81.0103 34.1416 81.0103 33.9864 81.0103 33.7536C80.464 27.6237 78.2787 23.5112 74.6106 20.5626C68.211 15.4413 60.2504 17.8468 59.0798 18.2347H59.0017C57.4408 18.6227 55.8799 19.0883 54.319 19.5538C53.3045 16.9932 52.0557 14.5102 50.729 12.1048C49.4022 9.77692 47.9194 7.68186 46.2804 5.89719C44.6415 4.11251 42.8465 2.71581 40.8954 1.62949C38.8662 0.543162 36.681 0 34.2616 0C29.735 0 25.4425 1.70708 21.3062 5.04365C17.2479 8.38021 13.6578 12.9583 10.536 18.6227C7.41424 24.2871 4.99485 30.8826 3.12178 38.3317C1.24871 45.7808 0.234134 53.6178 0 61.8429C0 64.6363 0 67.3521 0.156089 70.0679C0.234134 71.1542 0.312178 72.163 0.390223 73.2493C0.624357 76.1979 3.12178 78.3705 6.08748 78.3705C9.4434 78.3705 12.0189 75.5771 11.7847 72.2405C11.7067 71.6198 11.7067 70.999 11.6286 70.3783C11.4726 67.8177 11.4726 65.257 11.5506 62.8516C11.7067 55.0146 12.6432 47.9534 14.2822 41.5907C15.9211 35.2279 17.9503 29.7963 20.2916 25.2958C22.6329 20.7953 25.0523 17.3036 27.6278 14.8206C30.2033 12.3375 32.3885 11.096 34.2616 11.096C35.2762 11.096 36.2907 11.5616 37.3053 12.5703C38.3199 13.5791 39.2564 14.743 40.1149 16.1397C40.9734 17.5364 41.7539 19.0107 42.4563 20.485C43.1587 21.9593 43.6269 23.1232 44.0172 24.0543C40.8954 25.9166 38.0077 28.0892 35.2762 30.5723C32.5446 33.0553 30.2033 35.8487 28.1741 38.8749C26.1449 41.9011 24.506 45.16 23.2573 48.5742C22.0086 51.9884 21.3842 55.5577 21.3062 59.2823C21.2281 61.6877 21.4623 64.0931 22.0086 66.3434C22.5549 68.5936 23.4914 70.6887 24.7401 72.4733C25.9888 74.3356 27.6278 75.8875 29.735 77.129C31.7641 78.3705 34.2616 79.2241 37.2273 79.6896C37.9297 79.8448 38.554 79.9224 39.1003 79.9224C39.7247 79.9224 40.271 79.9224 40.8954 79.9224C44.6415 79.6896 47.6852 78.6809 50.1827 76.8186C52.6801 74.9564 54.6312 72.6285 56.1141 69.8351C57.5969 67.0417 58.6115 63.9379 59.1578 60.679C59.7822 57.42 60.0163 54.161 60.0163 51.0572C60.0943 49.3502 60.0943 47.6431 59.9383 45.8584C59.8602 44.0737 59.6261 42.3666 59.47 40.6596C59.3139 39.1853 59.0798 37.5558 58.7676 35.6935C58.4554 33.8312 57.9871 31.8914 57.5189 29.9515C58.7676 29.5635 60.0163 29.2532 61.343 29.0204C61.4211 29.0204 61.4991 29.0204 61.5772 29.0204C62.4357 28.7876 65.8696 28.2444 67.2744 29.4083C68.7573 30.6499 69.0695 33.9864 69.1475 38.2541V57.42C69.1475 61.1445 69.7719 64.4035 71.0206 67.2745C72.2693 70.1455 73.9082 72.4733 76.0154 74.3356C78.0446 76.2755 80.3859 77.6722 83.0395 78.6033C85.6149 79.5344 88.3465 80 91.078 80C93.8096 80 96.4631 79.5344 99.1166 78.6033C101.692 77.6722 104.033 76.2755 106.063 74.3356C108.092 72.4733 109.731 70.0679 110.979 67.2745C112.228 64.4035 112.852 61.1445 112.852 57.42V34.452C112.931 32.7449 112.306 31.5034 111.135 30.6499ZM48.934 52.2211C48.934 53.3851 48.8559 54.8594 48.6218 56.644C48.3876 58.4287 47.9974 60.1358 47.5292 61.7653C46.9828 63.3948 46.2804 64.9467 45.3439 66.1882C44.4074 67.5073 43.1587 68.2832 41.5978 68.5936C40.8173 68.6712 39.9588 68.6712 38.9443 68.5936C37.1492 68.3608 35.5883 67.5073 34.2616 65.9554C32.9348 64.4035 32.3105 62.1533 32.4665 59.2823C32.4665 57.032 32.9348 54.7818 33.7933 52.3763C34.6518 49.9709 35.8225 47.6431 37.2273 45.4704C38.6321 43.2978 40.271 41.2803 41.988 39.418C43.783 37.5558 45.578 36.0815 47.3731 34.84C47.6072 36.0039 47.7633 37.2454 47.9974 38.4093C48.1535 39.5732 48.3876 40.8147 48.4657 41.9787C48.6998 43.7633 48.8559 45.4704 48.934 47.1775C48.934 48.9622 48.934 50.5917 48.934 52.2211Z" fill="#8776FF"/>
</g>
<defs>
<clipPath id="clip0_99_240">
<rect width="182" height="80" fill="white"/>
</clipPath>
</defs>
</svg>
